<svg version="1.1" viewBox="0.0 0.0 864.0 288.0" fill="none" stroke="none" stroke-linecap="square" stroke-miterlimit="10" xmlns:xlink="http://www.w3.org/1999/xlink" xmlns="http://www.w3.org/2000/svg"><clipPath id="p.0"><path d="m0 0l864.0 0l0 288.0l-864.0 0l0 -288.0z" clip-rule="nonzero"/></clipPath><g clip-path="url(#p.0)"><path fill="#000000" fill-opacity="0.0" d="m0 0l864.0 0l0 288.0l-864.0 0z" fill-rule="evenodd"/><path fill="#000000" fill-opacity="0.0" d="m94.68372 47.68504l674.6337 0l0 233.63377l-674.6337 0z" fill-rule="evenodd"/><path fill="#ffffff" d="m179.67278 99.216286q-7.078125 0.53125 -10.671875 4.46875q-3.59375 3.9375 -3.59375 11.796875l0 4.265625l14.796875 0q2.265625 0 3.453125 1.203125q1.203125 1.203125 1.203125 3.203125q0 2.0 -1.203125 3.078125q-1.1875 1.0625076 -3.453125 1.0625076l-14.796875 0l0 51.71875q0 2.53125 -1.546875 3.9375q-1.53125 1.40625 -3.796875 1.40625q-2.390625 0 -3.9375 -1.40625q-1.53125 -1.40625 -1.53125 -3.9375l0 -51.71875l-8.921875 0q-2.265625 0 -3.546875 -1.1406326q-1.265625 -1.140625 -1.265625 -3.0q0 -2.0 1.265625 -3.203125q1.28125 -1.203125 3.546875 -1.203125l8.921875 0l0 -2.390625q0 -12.0 6.0 -18.859375q6.0 -6.875 17.203125 -7.671875l3.46875 -0.265625q3.46875 -0.265625 5.0 0.671875q1.53125 0.921875 1.53125 3.328125q0 3.859375 -4.671875 4.390625l-3.453125 0.265625z" fill-rule="nonzero"/><path fill="#ffffff" d="m207.07858 185.35692q-2.40625 0 -3.9375 -1.40625q-1.53125 -1.40625 -1.53125 -3.9375l0 -84.65626q0 -2.53125 1.53125 -3.921875q1.53125 -1.40625 3.9375 -1.40625q2.265625 0 3.796875 1.40625q1.53125 1.390625 1.53125 3.921875l0 84.65626q0 2.53125 -1.53125 3.9375q-1.53125 1.40625 -3.796875 1.40625zm52.40088 0.265625q-9.20311 0 -16.20311 -4.125q-7.0 -4.140625 -10.796875 -11.8125q-3.796875 -7.671875 -3.796875 -17.796875q0 -10.140625 3.796875 -17.796875q3.796875 -7.6718826 10.796875 -11.796883q7.0 -4.140625 16.20311 -4.140625q9.1875 0 16.25 4.140625q7.078125 4.125 10.875 11.796883q3.796875 7.65625 3.796875 17.796875q0 10.125 -3.796875 17.796875q-3.796875 7.671875 -10.875 11.8125q-7.0625 4.125 -16.25 4.125zm0 -8.9375q9.59375 0 14.71875 -6.328125q5.140625 -6.34375 5.140625 -18.46875q0 -11.875 -5.203125 -18.328125q-5.203125 -6.4687576 -14.65625 -6.4687576q-9.468735 0 -14.67186 6.4687576q-5.203125 6.453125 -5.203125 18.328125q0 12.0 5.125 18.40625q5.140625 6.390625 14.749985 6.390625zm73.59091 -58.531258q24.40625 0 24.40625 25.593758l0 36.265625q0 2.40625 -1.40625 3.875q-1.40625 1.46875 -3.796875 1.46875q-2.40625 0 -3.875 -1.46875q-1.46875 -1.46875 -1.46875 -3.875l0 -6.390625q-2.53125 5.734375 -7.734375 8.875q-5.1875 3.125 -11.984375 3.125q-6.265625 0 -11.546875 -2.53125q-5.265625 -2.546875 -8.328125 -7.078125q-3.0625 -4.53125 -3.0625 -10.0q0 -7.328125 3.734375 -11.390625q3.734375 -4.0625 12.265625 -5.859375q8.53125 -1.8125 23.734375 -1.8125l2.921875 0l0 -4.390625q0 -8.0 -3.265625 -11.734375q-3.265625 -3.7343826 -10.59375 -3.7343826q-9.0625 0 -18.40625 4.9218826q-3.59375 2.28125 -5.0625 2.28125q-1.59375 0 -2.671875 -1.203125q-1.0625 -1.203125 -1.0625 -3.078125q0 -1.859375 1.125 -3.2500076q1.140625 -1.40625 3.671875 -2.875q4.671875 -2.671875 10.609375 -4.203125q5.9375 -1.53125 11.796875 -1.53125zm-4.40625 58.937508q8.0 0 13.125 -5.40625q5.140625 -5.40625 5.140625 -13.9375l0 -3.859375l-2.390625 0q-11.734375 0 -17.875 1.0q-6.125 1.0 -8.734375 3.34375q-2.59375 2.328125 -2.59375 6.859375q0 5.1875 3.796875 8.59375q3.8125 3.40625 9.53125 3.40625zm78.53894 -0.265625q4.671875 0.390625 4.671875 4.265625q0 2.265625 -1.671875 3.40625q-1.671875 1.125 -5.0 0.859375l-3.59375 -0.265625q-10.671875 -0.8125 -15.75 -6.40625q-5.0625 -5.59375 -5.0625 -16.9375l0 -33.453125l-8.921875 0q-2.265625 0 -3.546875 -1.1406326q-1.265625 -1.140625 -1.265625 -3.0q0 -2.0 1.265625 -3.203125q1.28125 -1.203125 3.546875 -1.203125l8.921875 0l0 -15.0625q0 -2.53125 1.46875 -3.921875q1.46875 -1.40625 4.0 -1.40625q2.40625 0 3.875 1.40625q1.46875 1.390625 1.46875 3.921875l0 15.0625l14.796875 0q2.125 0 3.390625 1.203125q1.265625 1.203125 1.265625 3.203125q0 1.859375 -1.265625 3.0q-1.265625 1.1406326 -3.390625 1.1406326l-14.796875 0l0 33.984375q0 7.34375 3.0 10.609375q3.0 3.265625 9.0 3.65625l3.59375 0.28125z" fill-rule="nonzero"/><path fill="#ffffff" d="m462.0838 118.153786q8.53125 0 15.0625 4.265625q6.53125 4.265625 10.125 11.937508q3.609375 7.65625 3.609375 17.796875q0 10.125 -3.609375 17.671875q-3.59375 7.53125 -10.0625 11.671875q-6.46875 4.125 -15.125 4.125q-7.609375 0 -13.28125 -3.328125q-5.65625 -3.34375 -8.59375 -9.46875l0 31.328125q0 2.390625 -1.40625 3.796875q-1.390625 1.40625 -3.921875 1.40625q-2.53125 0 -4.0 -1.46875q-1.46875 -1.46875 -1.46875 -3.734375l0 -80.40626q0 -2.390625 1.46875 -3.859375q1.46875 -1.46875 4.0 -1.46875q2.53125 0 3.921875 1.46875q1.40625 1.46875 1.40625 3.859375l0 7.2031326q2.9375 -6.1250076 8.59375 -9.453133q5.671875 -3.34375 13.28125 -3.34375zm-2.140625 58.531258q9.46875 0 14.65625 -6.390625q5.203125 -6.40625 5.203125 -18.140625q0 -11.734375 -5.203125 -18.328125q-5.1875 -6.6093826 -14.65625 -6.6093826q-9.46875 0 -14.609375 6.4062576q-5.125 6.390625 -5.125 18.265625q0 11.859375 5.125 18.328125q5.140625 6.46875 14.609375 6.46875zm74.003296 8.9375q-9.203125 0 -16.203125 -4.125q-7.0000305 -4.140625 -10.7969055 -11.8125q-3.796875 -7.671875 -3.796875 -17.796875q0 -10.140625 3.796875 -17.796875q3.796875 -7.6718826 10.7969055 -11.796883q7.0 -4.140625 16.203125 -4.140625q9.1875 0 16.25 4.140625q7.078125 4.125 10.875 11.796883q3.796875 7.65625 3.796875 17.796875q0 10.125 -3.796875 17.796875q-3.796875 7.671875 -10.875 11.8125q-7.0625 4.125 -16.25 4.125zm0 -8.9375q9.59375 0 14.71875 -6.328125q5.140625 -6.34375 5.140625 -18.46875q0 -11.875 -5.203125 -18.328125q-5.203125 -6.4687576 -14.65625 -6.4687576q-9.46875 0 -14.671875 6.4687576q-5.203125 6.453125 -5.203125 18.328125q0 12.0 5.125 18.40625q5.140625 6.390625 14.75 6.390625zm52.52838 8.671875q-2.40625 0 -3.9375 -1.40625q-1.53125 -1.40625 -1.53125 -3.9375l0 -56.265633q0 -2.53125 1.53125 -3.921875q1.53125 -1.40625 3.9375 -1.40625q2.390625 0 3.859375 1.40625q1.46875 1.390625 1.46875 3.921875l0 56.265633q0 2.671875 -1.46875 4.015625q-1.46875 1.328125 -3.859375 1.328125zm0 -80.93751q-3.203125 0 -5.203125 -1.859375q-2.0 -1.875 -2.0 -4.9375q0 -2.9375 2.0 -4.796875q2.0 -1.875 5.203125 -1.875q3.203125 0 5.203125 1.875q2.0 1.859375 2.0 4.796875q0 3.0625 -2.0 4.9375q-2.0 1.859375 -5.203125 1.859375zm58.135254 13.734375q23.328125 0 23.328125 25.734383l0 36.125q0 2.53125 -1.40625 3.9375q-1.390625 1.40625 -3.921875 1.40625q-2.546875 0 -4.015625 -1.40625q-1.453125 -1.40625 -1.453125 -3.9375l0 -35.453125q0 -9.078125 -3.546875 -13.203125q-3.53125 -4.1406326 -11.25 -4.1406326q-8.9375 0 -14.28125 5.4687576q-5.328125 5.46875 -5.328125 14.796875l0 32.53125q0 2.53125 -1.40625 3.9375q-1.390625 1.40625 -3.921875 1.40625q-2.53125 0 -4.0 -1.40625q-1.46875 -1.40625 -1.46875 -3.9375l0 -56.265633q0 -2.390625 1.46875 -3.859375q1.46875 -1.46875 4.0 -1.46875q2.390625 0 3.796875 1.46875q1.40625 1.46875 1.40625 3.734375l0 6.7968826q3.1875 -6.0000076 8.921875 -9.125008q5.734375 -3.140625 13.078125 -3.140625zm73.05853 58.671883q4.671875 0.390625 4.671875 4.265625q0 2.265625 -1.671875 3.40625q-1.671875 1.125 -5.0 0.859375l-3.59375 -0.265625q-10.671875 -0.8125 -15.75 -6.40625q-5.0625 -5.59375 -5.0625 -16.9375l0 -33.453125l-8.921875 0q-2.265625 0 -3.546875 -1.1406326q-1.265625 -1.140625 -1.265625 -3.0q0 -2.0 1.265625 -3.203125q1.28125 -1.203125 3.546875 -1.203125l8.921875 0l0 -15.0625q0 -2.53125 1.46875 -3.921875q1.46875 -1.40625 4.0 -1.40625q2.40625 0 3.875 1.40625q1.46875 1.390625 1.46875 3.921875l0 15.0625l14.796875 0q2.125 0 3.390625 1.203125q1.265625 1.203125 1.265625 3.203125q0 1.859375 -1.265625 3.0q-1.265625 1.1406326 -3.390625 1.1406326l-14.796875 0l0 33.984375q0 7.34375 3.0 10.609375q3.0 3.265625 9.0 3.65625l3.59375 0.28125z" fill-rule="nonzero"/><path fill="#ffffff" d="m730.95184 181.01094l0 0c0 -3.4562225 2.7856445 -6.2580414 6.221863 -6.2580414l0 0c1.6501465 0 3.232727 0.6593323 4.399536 1.8329315c1.1668701 1.1736145 1.8223267 2.7653809 1.8223267 4.42511l0 0c0 3.4562225 -2.7855835 6.2580566 -6.221863 6.2580566l0 0c-3.4362183 0 -6.221863 -2.801834 -6.221863 -6.2580566z" fill-rule="evenodd"/></g></svg>